#!OML:ASF H:\BabyWalks\Project 1\Capture day 1\Session 1\baby.ASF
:FULLY-SPECIFIED
:DEGREES
418
root 7.90243 17.4287 -18.9747 4.80989 72.639 -1.36448
lowerback 21.678 -2.95451 2.94007
upperback 5.11042 -2.47061 4.68788
thorax -6.42478 -1.07027 4.05576
lowerneck -5.12658 -6.58546 2.57815
upperneck -2.19596 -8.92966 -3.38045
head -0.108097 -4.50021 -1.57845
rclavicle -2.8625e-014 -1.11319e-014
rhumerus -41.0584 21.1086 -77.3944
rradius 35.922
rwrist 12.5652
rhand -11.2377 -11.7854
rfingers 7.12502
rthumb 14.7915 -41.2376
lclavicle -2.8625e-014 -1.11319e-014
lhumerus -40.6085 -18.1646 82.261
lradius 59.632
lwrist -9.99447
lhand -7.87919 6.88209
lfingers 7.12502
lthumb 18.0251 36.0668
rfemur -23.8591 9.11763 24.4957
rtibia 41.6738
rfoot -21.1711 1.81571
rtoes 9.53465
lfemur -24.328 5.48988 -7.33088
ltibia 62.5901
lfoot -13.317 -34.0203
ltoes -1.28051
419
root 8.04173 17.4371 -18.9344 4.932 71.5342 -1.32678
lowerback 21.7369 -2.52309 3.02176
upperback 5.06397 -1.89577 4.67496
thorax -6.53608 -0.796107 3.84605
lowerneck -5.12296 -6.58626 2.7681
upperneck -2.05811 -8.93992 -3.67816
head -0.0885907 -4.50855 -1.70718
rclavicle -1.06549e-013 4.45278e-014
rhumerus -40.0984 21.7585 -77.0718
rradius 36.5925
rwrist 12.3333
rhand -11.9443 -12.0229
rfingers 7.12502
rthumb 14.1107 -41.5238
lclavicle -1.06549e-013 4.45278e-014
lhumerus -42.2813 -17.974 83.6427
lradius 57.9332
lwrist -9.93475
lhand -7.54534 6.5719
lfingers 7.12502
lthumb 18.3463 35.7267
rfemur -23.3183 9.76326 24.5329
rtibia 41.4019
rfoot -21.394 2.18969
rtoes 9.65211
lfemur -25.2054 5.92127 -7.77954
ltibia 61.9854
lfoot -14.0633 -33.6932
ltoes -1.56756
420
root 8.1815 17.4491 -18.8936 5.06698 70.4152 -1.29578
lowerback 21.7936 -2.0893 3.09952
upperback 5.00416 -1.32167 4.63638
thorax -6.65842 -0.523585 3.6092
lowerneck -5.14822 -6.5851 2.96033
upperneck -1.88597 -8.94678 -3.95343
head -0.0524718 -4.51556 -1.83199
rclavicle -1.43125e-014 -1.74931e-014
rhumerus -39.2115 22.4021 -76.7706
rradius 37.4325
rwrist 11.7819
rhand -12.6903 -12.3655
rfingers 7.12502
rthumb 13.3917 -41.9151
lclavicle -1.43125e-014 -1.74931e-014
lhumerus -43.9786 -17.7902 84.9597
lradius 56.3287
lwrist -9.88777
lhand -7.04057 6.36725
lfingers 7.12502
lthumb 18.8318 35.4757
rfemur -22.7569 10.4546 24.5547
rtibia 41.045
rfoot -21.5719 2.53318
rtoes 9.7598
lfemur -26.0504 6.2722 -8.23271
ltibia 61.1402
lfoot -14.7821 -33.3236
ltoes -1.87911
421
root 8.32222 17.4649 -18.8522 5.19717 69.2933 -1.28712
lowerback 21.8384 -1.65922 3.18209
upperback 4.93796 -0.754687 4.57341
thorax -6.77825 -0.255855 3.34276
lowerneck -5.19966 -6.58473 3.14151
upperneck -1.69318 -8.9535 -4.18802
head -0.00299296 -4.52263 -1.94434
rclavicle 3.26007e-014 -3.18055e-015
rhumerus -38.3849 23.0409 -76.4905
rradius 38.427
rwrist 10.9407
rhand -13.4562 -12.8089
rfingers 7.12502
rthumb 12.6534 -42.4056
lclavicle 3.26007e-014 -3.18055e-015
lhumerus -45.6931 -17.6161 86.2078
lradius 54.8365
lwrist -9.90307
lhand -6.40175 6.26163
lfingers 7.12502
lthumb 19.4461 35.3092
rfemur -22.1673 11.1872 24.5668
rtibia 40.5974
rfoot -21.7035 2.84585
rtoes 9.87872
lfemur -26.8558 6.52605 -8.67415
ltibia 60.0682
lfoot -15.4813 -32.8975
ltoes -2.26537
422
root 8.46404 17.4843 -18.8101 5.33503 68.1846 -1.28802
lowerback 21.8691 -1.24139 3.26708
upperback 4.86634 -0.206282 4.48746
thorax -6.89214 0.00167252 3.05306
lowerneck -5.27107 -6.58267 3.3109
upperneck -1.4984 -8.95725 -4.3812
head 0.053224 -4.52818 -2.04297
rclavicle -3.97569e-015 -6.83819e-014
rhumerus -37.6065 23.6775 -76.228
rradius 39.5583
rwrist 9.86756
rhand -14.2175 -13.3239
rfingers 7.12502
rthumb 11.9194 -42.9646
lclavicle -3.97569e-015 -6.83819e-014
lhumerus -47.4276 -17.4584 87.3849
lradius 53.4883
lwrist -9.99561
lhand -5.61204 6.25084
lfingers 7.12502
lthumb 20.2053 35.22
rfemur -21.5456 11.9494 24.5656
rtibia 40.0546
rfoot -21.7896 3.12356
rtoes 9.98607
lfemur -27.6234 6.66544 -9.09858
ltibia 58.7836
lfoot -16.1271 -32.4171
ltoes -2.68278
423
root 8.60716 17.507 -18.7673 5.46345 67.0968 -1.31508
lowerback 21.879 -0.839744 3.35976
upperback 4.79374 0.319547 4.38171
thorax -6.9911 0.247225 2.74194
lowerneck -5.35855 -6.57956 3.47224
upperneck -1.3172 -8.95971 -4.53362
head 0.110396 -4.53292 -2.12799
rclavicle 3.02153e-014 3.81667e-014
rhumerus -36.8643 24.3096 -75.9772
rradius 40.8091
rwrist 8.65313
rhand -14.9372 -13.884
rfingers 7.12502
rthumb 11.2254 -43.5637
lclavicle 3.02153e-014 3.81667e-014
lhumerus -49.1805 -17.3235 88.4958
lradius 52.305
lwrist -10.1483
lhand -4.69716 6.31566
lfingers 7.12502
lthumb 21.0844 35.1894
rfemur -20.8945 12.736 24.5591
rtibia 39.4269
rfoot -21.8374 3.36553
rtoes 10.0801
lfemur -28.3516 6.67915 -9.48704
ltibia 57.3096
lfoot -16.7256 -31.8864
ltoes -3.12186
424
root 8.75191 17.5335 -18.7236 5.60013 66.0411 -1.34256
lowerback 21.871 -0.459282 3.45146
upperback 4.72196 0.814848 4.25784
thorax -7.07415 0.477366 2.41911
lowerneck -5.44829 -6.57625 3.61602
upperneck -1.16502 -8.96178 -4.64306
head 0.161799 -4.53698 -2.19589
rclavicle -7.95139e-016 -4.13472e-014
rhumerus -36.1536 24.9436 -75.7309
rradius 42.1635
rwrist 7.37872
rhand -15.5986 -14.4439
rfingers 7.12502
rthumb 10.5874 -44.1572
lclavicle -7.95139e-016 -4.13472e-014
lhumerus -50.9615 -17.2191 89.5585
lradius 51.3181
lwrist -10.3055
lhand -3.67418 6.46045
lfingers 7.12502
lthumb 22.0668 35.2214
rfemur -20.2003 13.5328 24.5396
rtibia 38.7014
rfoot -21.8402 3.57539
rtoes 10.1562
lfemur -29.0264 6.55423 -9.83958
ltibia 55.6508
lfoot -17.254 -31.3015
ltoes -3.43172
425
root 8.89827 17.5593 -18.6796 5.72694 65.0242 -1.38517
lowerback 21.8483 -0.10217 3.54895
upperback 4.65268 1.279 4.11917
thorax -7.14104 0.691978 2.08512
lowerneck -5.54138 -6.57213 3.74796
upperneck -1.04663 -8.9633 -4.7144
head 0.205586 -4.54029 -2.24895
rclavicle -5.96354e-014 -3.18055e-015
rhumerus -35.468 25.5686 -75.4809
rradius 43.6048
rwrist 6.13598
rhand -16.1776 -14.9675
rfingers 7.12502
rthumb 10.0288 -44.7085
lclavicle -5.96354e-014 -3.18055e-015
lhumerus -52.7757 -17.1533 90.5861
lradius 50.5547
lwrist -10.4111
lhand -2.548 6.68168
lfingers 7.12502
lthumb 23.1477 35.311
rfemur -19.4667 14.327 24.5162
rtibia 37.8904
rfoot -21.802 3.75685
rtoes 10.2063
lfemur -29.6549 6.28802 -10.1359
ltibia 53.841
lfoot -17.692 -30.6904
ltoes -3.58831
426
root 9.0467 17.5909 -18.6341 5.85496 64.0488 -1.4227
lowerback 21.8092 0.231201 3.64378
upperback 4.58987 1.70944 3.96565
thorax -7.18682 0.89028 1.74594
lowerneck -5.62174 -6.56935 3.86915
upperneck -0.972893 -8.96722 -4.74935
head 0.235273 -4.54415 -2.28679
rclavicle 0 -5.24792e-014
rhumerus -34.8043 26.1888 -75.2247
rradius 45.1175
rwrist 4.98287
rhand -16.6815 -15.4029
rfingers 7.12502
rthumb 9.54268 -45.1668
lclavicle 0 -5.24792e-014
lhumerus -54.6237 -17.1231 91.5913
lradius 50.0189
lwrist -10.4244
lhand -1.34687 6.98008
lfingers 7.12502
lthumb 24.2997 35.4599
rfemur -18.6704 15.1103 24.4847
rtibia 36.9801
rfoot -21.7225 3.91352
rtoes 10.2381
lfemur -30.2028 5.88095 -10.3779
ltibia 51.8778
lfoot -18.0413 -30.0583
ltoes -3.59831
427
root 9.19699 17.6234 -18.5876 5.96086 63.1151 -1.47865
lowerback 21.7601 0.542709 3.7391
upperback 4.53 2.1107 3.80532
thorax -7.2191 1.07457 1.40776
lowerneck -5.69954 -6.56187 3.97905
upperneck -0.926185 -8.9651 -4.75747
head 0.258075 -4.54456 -2.31318
rclavicle -6.36111e-015 -1.74931e-014
rhumerus -34.18 26.7971 -74.9587
rradius 46.7027
rwrist 3.97125
rhand -17.1113 -15.7233
rfingers 7.12502
rthumb 9.12792 -45.5057
lclavicle -6.36111e-015 -1.74931e-014
lhumerus -56.505 -17.1255 92.588
lradius 49.7068
lwrist -10.3168
lhand -0.0729387 7.33999
lfingers 7.12502
lthumb 25.5205 35.6508
rfemur -17.8194 15.8778 24.4594
rtibia 35.9826
rfoot -21.6011 4.05023
rtoes 10.2521
lfemur -30.6844 5.34345 -10.5436
ltibia 49.8058
lfoot -18.3047 -29.4137
ltoes -3.43256
428
root 9.34957 17.6574 -18.5397 6.04109 62.2238 -1.54975
lowerback 21.6987 0.832824 3.83867
upperback 4.47706 2.48411 3.63881
thorax -7.23271 1.24573 1.06909
lowerneck -5.76746 -6.55416 4.0849
upperneck -0.912489 -8.96332 -4.74553
head 0.269893 -4.54472 -2.33106
rclavicle 5.96354e-014 -2.70347e-014
rhumerus -33.5947 27.3867 -74.68
rradius 48.3507
rwrist 3.11725
rhand -17.4838 -15.905
rfingers 7.12502
rthumb 8.76848 -45.7029
lclavicle 5.96354e-014 -2.70347e-014
lhumerus -58.4074 -17.1425 93.5681
lradius 49.6011
lwrist -10.1131
lhand 1.23995 7.73591
lfingers 7.12502
lthumb 26.7775 35.8606
rfemur -16.8959 16.6134 24.4428
rtibia 34.8839
rfoot -21.4316 4.18224
rtoes 10.2578
lfemur -31.0842 4.67774 -10.6284
ltibia 47.644
lfoot -18.4884 -28.7472
ltoes -3.12676
429
root 9.50427 17.6921 -18.4902 6.08826 61.3728 -1.64058
lowerback 21.6277 1.10885 3.94098
upperback 4.4304 2.83937 3.46985
thorax -7.23007 1.40859 0.732457
lowerneck -5.8184 -6.54879 4.17704
upperneck -0.925812 -8.96428 -4.7043
head 0.272119 -4.54568 -2.33559
rclavicle -2.70347e-014 7.95139e-015
rhumerus -33.0655 27.9314 -74.3857
rradius 50.0634
rwrist 2.43776
rhand -17.8373 -15.9229
rfingers 7.12502
rthumb 8.42736 -45.7348
lclavicle -2.70347e-014 7.95139e-015
lhumerus -60.3124 -17.1645 94.527
lradius 49.6628
lwrist -9.84814
lhand 2.54402 8.12866
lfingers 7.12502
lthumb 28.0248 36.056
rfemur -15.9039 17.3146 24.4423
rtibia 33.7013
rfoot -21.2166 4.31574
rtoes 10.2753
lfemur -31.4086 3.90521 -10.6267
ltibia 45.4445
lfoot -18.635 -28.0445
ltoes -2.78361
430
root 9.66091 17.7267 -18.4389 6.1055 60.5601 -1.75013
lowerback 21.5454 1.37253 4.04198
upperback 4.38581 3.17808 3.3016
thorax -7.2157 1.564 0.403372
lowerneck -5.8627 -6.54334 4.26745
upperneck -0.940785 -8.96495 -4.65706
head 0.27306 -4.54634 -2.33753
rclavicle -4.21423e-014 6.20208e-014
rhumerus -32.6053 28.4239 -74.0814
rradius 51.8396
rwrist 1.90789
rhand -18.188 -15.7803
rfingers 7.12502
rthumb 8.08885 -45.6055
lclavicle -4.21423e-014 6.20208e-014
lhumerus -62.2073 -17.1747 95.4485
lradius 49.8591
lwrist -9.53979
lhand 3.85236 8.48263
lfingers 7.12502
lthumb 29.2747 36.1988
rfemur -14.8479 17.9705 24.4594
rtibia 32.4374
rfoot -20.9537 4.46278
rtoes 10.3238
lfemur -31.6688 3.04147 -10.5399
ltibia 43.2483
lfoot -18.7546 -27.2915
ltoes -2.44659
431
root 9.81954 17.7607 -18.3855 6.07321 59.7803 -1.8951
lowerback 21.4531 1.62858 4.14366
upperback 4.34322 3.50761 3.14085
thorax -7.19078 1.71559 0.0862376
lowerneck -5.89265 -6.5397 4.34604
upperneck -0.95059 -8.96679 -4.59798
head 0.274203 -4.54727 -2.33308
rclavicle -5.96354e-014 1.11319e-014
rhumerus -32.2264 28.861 -73.7711
rradius 53.6735
rwrist 1.49369
rhand -18.5534 -15.5024
rfingers 7.12502
rthumb 7.73625 -45.3409
lclavicle -5.96354e-014 1.11319e-014
lhumerus -64.0736 -17.1507 96.3189
lradius 50.1449
lwrist -9.21591
lhand 5.07183 8.75666
lfingers 7.12502
lthumb 30.4385 36.2636
rfemur -13.7265 18.5686 24.508
rtibia 31.1041
rfoot -20.6449 4.63876
rtoes 10.423
lfemur -31.8664 2.11171 -10.3626
ltibia 41.1032
lfoot -18.8871 -26.455
ltoes -2.21048
432
root 9.97971 17.7934 -18.33 6.01189 59.0269 -2.05488
lowerback 21.3499 1.88179 4.23351
upperback 4.30161 3.83108 2.98564
thorax -7.15682 1.86508 -0.214702
lowerneck -5.91071 -6.53622 4.41591
upperneck -0.948391 -8.96768 -4.52951
head 0.277979 -4.54746 -2.32388
rclavicle -4.29375e-014 4.29375e-014
rhumerus -31.9313 29.2339 -73.4619
rradius 55.5549
rwrist 1.15886
rhand -18.9106 -15.129
rfingers 7.12502
rthumb 7.39141 -44.9799
lclavicle -4.29375e-014 4.29375e-014
lhumerus -65.8956 -17.0929 97.123
lradius 50.4933
lwrist -8.85976
lhand 6.16445 8.9333
lfingers 7.12502
lthumb 31.48 36.2422
rfemur -12.5522 19.0967 24.5769
rtibia 29.7167
rfoot -20.2916 4.86082
rtoes 10.6052
lfemur -32.0158 1.13899 -10.1134
ltibia 39.0547
lfoot -19.0205 -25.5205
ltoes -2.04384
